<?xml version="1.0" encoding="UTF-8" standalone="no"?>
<!DOCTYPE svg PUBLIC "-//W3C//DTD SVG 1.1//EN" "http://www.w3.org/Graphics/SVG/1.1/DTD/svg11.dtd">
<!-- Created with Vectornator (http://vectornator.io/) -->
<svg height="100%" stroke-miterlimit="10" style="fill-rule:nonzero;clip-rule:evenodd;stroke-linecap:round;stroke-linejoin:round;" version="1.1" viewBox="0 0 150 150" width="100%" xml:space="preserve" xmlns="http://www.w3.org/2000/svg" xmlns:vectornator="http://vectornator.io" xmlns:xlink="http://www.w3.org/1999/xlink">
<defs/>
<clipPath id="ArtboardFrame">
<rect height="150" width="150" x="0" y="0"/>
</clipPath>
<g clip-path="url(#ArtboardFrame)" id="Untitled" vectornator:layerName="Untitled">
<path d="M0 20C0 8.95431 8.95431 1.0376e-06 20 1.0376e-06L130 1.0376e-06C141.046 1.0376e-06 150 8.95431 150 20L150 130C150 141.046 141.046 150 130 150L20 150C8.95431 150 0 141.046 0 130L0 20Z" fill="#007cff" fill-rule="nonzero" opacity="1" stroke="none" vectornator:layerName="Rectangle 1"/>
<path d="M26.6396 77.9542L110.998 77.9542" fill="#ffffff" fill-rule="nonzero" opacity="1" stroke="#ffffff" stroke-linecap="round" stroke-linejoin="miter" stroke-width="40" vectornator:layerName="path"/>
<path d="M20.1178 77.9542L85.2198 77.9542" fill="#ffffff" fill-rule="nonzero" opacity="1" stroke="#ffffff" stroke-linecap="square" stroke-linejoin="miter" stroke-width="40" vectornator:layerName="path"/>
<path d="M-6.52017e-15 44.7365L88.3427 98.1047L-6.52017e-15 98.1047L-6.52017e-15 44.7365Z" fill="#ffe300" fill-rule="nonzero" opacity="1" stroke="#0095ff" stroke-linecap="butt" stroke-linejoin="miter" stroke-opacity="0" stroke-width="0.951341" vectornator:layerName="path 1"/>
<path d="M0 57.6091L67.0341 98.1047L0 98.1047L0 57.6091Z" fill="#255385" fill-rule="nonzero" opacity="1" stroke="#0095ff" stroke-linecap="butt" stroke-linejoin="miter" stroke-opacity="0" stroke-width="0.995217" vectornator:layerName="path"/>
</g>
</svg>
